<!-- Generated by IcoMoon.io -->
<svg version="1.1" xmlns="http://www.w3.org/2000/svg" width="768" height="768" viewBox="0 0 768 768">
<title></title>
<g id="icomoon-ignore">
</g>
<path d="M688.355 171.807c-16.659-22.719-39.88-49.275-65.384-74.778s-52.059-48.723-74.778-65.383c-38.68-28.365-57.444-31.646-68.193-31.646h-372c-33.084 0-60 26.916-60 60v648c0 33.084 26.916 60 60 60h552c33.084 0 60-26.916 60-60v-468c0-10.749-3.279-29.513-31.645-68.193zM589.031 130.97c23.025 23.025 41.1 43.798 54.435 61.030h-115.466v-115.459c17.238 13.335 38.009 31.409 61.031 54.429zM672 708c0 6.504-5.496 12-12 12h-552c-6.504 0-12-5.496-12-12v-648c0-6.504 5.496-12 12-12 0 0 371.967-0.002 372 0v168c0 13.254 10.745 24 24 24h168v468z"></path>
<path d="M552 624h-336c-13.254 0-24-10.745-24-24s10.746-24 24-24h336c13.255 0 24 10.745 24 24s-10.745 24-24 24z"></path>
<path d="M552 528h-336c-13.254 0-24-10.745-24-24s10.746-24 24-24h336c13.255 0 24 10.745 24 24s-10.745 24-24 24z"></path>
<path d="M552 432h-336c-13.254 0-24-10.745-24-24s10.746-24 24-24h336c13.255 0 24 10.745 24 24s-10.745 24-24 24z"></path>
</svg>
