<?xml version="1.0" standalone="no"?><!DOCTYPE svg PUBLIC "-//W3C//DTD SVG 1.1//EN" "http://www.w3.org/Graphics/SVG/1.1/DTD/svg11.dtd"><svg t="1600682988186" class="icon" viewBox="0 0 1024 1024" version="1.1" xmlns="http://www.w3.org/2000/svg" p-id="2362" xmlns:xlink="http://www.w3.org/1999/xlink" width="200" height="200"><defs><style type="text/css"></style></defs><path d="M992.797784 856.642659c17.019391 17.019391 28.365651 42.548476 28.365651 68.077563s-11.34626 48.221607-31.202216 68.077562c-17.019391 17.019391-39.711911 31.202216-65.240997 31.202216-25.529086 0-48.221607-8.509695-68.077563-28.365651l-258.127424-260.963989c-59.567867 36.875346-130.481994 56.731302-201.396121 56.731302-215.578947 0-397.119114-178.703601-397.119114-394.282548C0 175.867036 178.703601 0 394.282548 0s391.445983 178.703601 391.445984 397.119114c0 68.077562-17.019391 136.155125-53.894737 195.722991l260.963989 263.800554z m-238.271468-462.360111c0-198.559557-164.520776-365.916898-363.080333-365.916897S31.202216 195.722992 31.202216 394.282548s170.193906 365.916898 365.916898 365.916898 357.407202-167.357341 357.407202-365.916898z m-39.711912 226.925208c-22.692521 34.038781-51.058172 62.404432-85.096952 87.933518l-5.673131 5.67313 252.454294 255.290859c17.019391 17.019391 56.731302 31.202216 90.770083-2.836565 36.875346-36.875346 25.529086-68.077562 2.836565-90.770083l-255.290859-255.290859zM397.119114 138.99169c-90.770083 0-173.030471 48.221607-218.415513 127.645429-5.67313 5.67313-11.34626 8.509695-17.01939 8.509695-2.836565 0-5.67313 0-8.509696-2.836565-5.67313-5.67313-8.509695-14.182825-5.67313-22.69252 51.058172-87.933518 144.66482-141.828255 246.781163-141.828255 8.509695 0 14.182825 8.509695 14.182826 17.01939 2.836565 8.509695-5.67313 14.182825-11.34626 14.182826z m-249.617729 198.559557c-5.67313 14.182825-8.509695 31.202216-8.509695 48.221606 0 8.509695-5.67313 17.019391-14.182826 17.019391s-17.019391-5.67313-17.01939-14.182826c0-19.855956 2.836565-36.875346 8.509695-56.731302 2.836565-8.509695 11.34626-14.182825 19.855956-11.34626 5.67313 0 11.34626 8.509695 11.34626 17.019391z" fill="#515151" p-id="2363"></path></svg>