<?xml version="1.0" standalone="no"?><!DOCTYPE svg PUBLIC "-//W3C//DTD SVG 1.1//EN" "http://www.w3.org/Graphics/SVG/1.1/DTD/svg11.dtd"><svg t="1600679377311" class="icon" viewBox="0 0 1024 1024" version="1.1" xmlns="http://www.w3.org/2000/svg" p-id="5805" xmlns:xlink="http://www.w3.org/1999/xlink" width="200" height="200"><defs><style type="text/css"></style></defs><path d="M1000.90658 198.1L888.40658 56.9c-10.5-13.2-27.5-22.2-44.4-22.2H267.60658c-16.9 0-32.9 9-43.4 22.2L109.30658 197.5c-11.6 14.6-24.5 42.5-24.5 63.1v102.5c17.7-13.9 25.2-24.4 40.7-29.7 0.9-11.7 6.1-23.1 12.2-33.4 10.5-17.9 28.2-30.7 48.4-35.9 7.2-1.9 14.2-2.7 20.8-2.7 26.6 0 50.9 13.5 65 34.8 4.2-0.7 8.5-1.1 12.8-1.1 13.1 0 25.5 3.6 36.2 9.8l61.8-16.1c7.7-2 15.7-3 23.7-3 42.7 0 80.1 28.9 90.8 70.3l121.1 465.3c6.3 24.3 2.8 49.6-9.9 71.2s-33.1 40.2-57.4 46.5l-54 17.3h453.8c38.3 0 73.2-37.5 73.2-75.8V258.7c0-18.7-11.4-46-23.1-60.6z m-851.8-3.9l36.9-35.4h252l24.9-53.2H218.70658L245.90658 76c5.3-6.6 13.2-5.8 21.7-5.8H844.00658c8.5 0 16.4-0.8 21.7 5.8l27.3 29.6H644.40658l13.9 53.2h267.3l36.9 35.4H149.10658z" fill="#e6e6e6" p-id="5806"></path><path d="M315.00658 360.4l-0.2-0.6c-4.3-16.6-21.3-26.5-37.9-22.2l-15.6 4.1c-8.3 2.2-16.8-2.8-19-11.2l-0.1-0.5c-5-19.3-24.8-30.9-44.1-25.9l-0.8 0.2c-19.3 5-30.9 24.8-25.9 44.1l0.1 0.5c2.2 8.3-2.8 16.8-11.2 19l-15.6 4.1c-16.6 4.3-26.5 21.3-22.2 37.9l0.2 0.6c4.3 16.6 21.3 26.5 37.9 22.2l132.1-34.4c16.6-4.3 26.6-21.3 22.3-37.9z m-104.1-5.6c-8.4 2.2-16.9-2.8-19.1-11.2-2.2-8.4 2.9-16.9 11.2-19.1 8.4-2.2 16.9 2.8 19.1 11.2 2.2 8.3-2.8 16.9-11.2 19.1zM397.70658 803c1.5 5.6-1.9 11.3-7.5 12.7l-192.2 50c-5.6 1.5-11.3-1.9-12.7-7.5l-2.6-10.1c-1.5-5.6 1.9-11.3 7.5-12.7l192.2-50c5.6-1.5 11.3 1.9 12.7 7.5l2.6 10.1zM421.10658 602.5l2.6 10.1c1.5 5.6-1.9 11.3-7.5 12.7l-263 68.4c-5.6 1.5-11.3-1.9-12.7-7.5l-2.6-10.1c-1.5-5.6 1.9-11.3 7.5-12.7l263-68.4c5.6-1.4 11.3 1.9 12.7 7.5zM392.60658 534.3l-263 68.4c-5.6 1.5-11.3-1.9-12.7-7.5l-2.6-10.1c-1.5-5.6 1.9-11.3 7.5-12.7l263-68.4c5.6-1.5 11.3 1.9 12.7 7.5l2.6 10.1c1.4 5.6-1.9 11.3-7.5 12.7zM386.80658 719.4l-212.4 55.3c-5.6 1.5-11.3-1.9-12.7-7.5l-2.6-10.1c-1.5-5.6 1.9-11.3 7.5-12.7L379.00658 689.1c5.6-1.5 11.3 1.9 12.7 7.5l2.6 10.1c1.4 5.6-2 11.3-7.5 12.7z" fill="#e6e6e6" p-id="5807"></path><path d="M578.00658 831.7L456.90658 366.4c-7.3-27.9-35.8-44.7-63.7-37.4l-61.7 16c1.5 3 2.7 6.2 3.5 9.6 7.4 28.3-9.3 56.8-37 64l-130.2 33.9c-26.6 6.9-55.2-6.8-64.1-32.7-1.7-4.9-2.6-9.8-2.8-14.6l-61.8 16.1C11.20658 428.6-5.59342 457.1 1.70658 485l121.1 465.3c7.3 27.9 35.8 44.7 63.7 37.4l354.1-92.1c27.9-7.4 44.6-36 37.4-63.9zM173.30658 937L68.10658 532.3l354.1-92.1 105.3 404.6L173.30658 937z" fill="#e6e6e6" p-id="5808"></path></svg>